<?xml version="1.0" encoding="utf-8"?>
<!-- Generator: Adobe Illustrator 22.0.0, SVG Export Plug-In . SVG Version: 6.00 Build 0)  -->
<svg version="1.1" id="图层_1" xmlns="http://www.w3.org/2000/svg" xmlns:xlink="http://www.w3.org/1999/xlink" x="0px" y="0px"
	 viewBox="0 0 114 133" style="enable-background:new 0 0 114 133;" xml:space="preserve">
<style type="text/css">
	.st0{fill:#FFFFFF;}
	.st1{display:none;}
	.st2{display:inline;opacity:0.19;fill:#FFFFFF;}
</style>
<g id="MAA_IN_CHINA">
	<g>
		<path class="st0" d="M57,19.4c-1.2,0-2.3-0.5-3-1.4c-0.2-0.3-0.4-0.6-0.6-0.9c-0.1-0.1-0.1-0.2-0.1-0.3c-0.2-0.5-0.5-1-0.8-1.5
			c-0.9-1.5-2.1-2.8-3.5-3.8c-0.1,0-0.1-0.1-0.2-0.1c-0.6-0.5-1-1.3-1-2.1c0-0.7,0.3-1.4,0.7-1.9c0.1-0.1,0.2-0.2,0.3-0.3
			C51,5.2,53.9,4,57,4s6,1.2,8.2,3.1c0.1,0.1,0.2,0.2,0.3,0.3c0.5,0.5,0.7,1.1,0.7,1.9c0,0.9-0.4,1.6-1,2.1c-0.1,0-0.1,0.1-0.2,0.1
			c-1.4,1-2.6,2.3-3.5,3.8c-0.3,0.5-0.6,1-0.8,1.5c0,0.1-0.1,0.2-0.1,0.3c-0.2,0.3-0.4,0.6-0.6,0.9C59.3,18.9,58.2,19.4,57,19.4z"/>
		<path class="st0" d="M57,29.4c-0.6,0-1.2-0.1-1.7-0.3c-0.4-0.1-0.8-0.3-1.1-0.5c-0.5-0.2-0.9-0.5-1.3-0.9c0,0-0.1-0.1-0.1-0.1
			c-0.6-0.6-1-1.2-1.3-1.9c0-0.1-0.1-0.2-0.1-0.3c-0.5-1.3-1.2-2.6-2-3.7c-1.3-1.9-2.9-3.5-4.9-4.8c-0.8-0.5-1.6-1-2.5-1.4
			c-0.2-0.1-0.4-0.2-0.5-0.3c-0.8-0.5-1.3-1.3-1.3-2.3c0-1.5,1.2-2.7,2.7-2.7c0.5,0,0.9,0.1,1.3,0.3c0.1,0.1,0.2,0.1,0.2,0.1
			c0.4,0.2,0.8,0.5,1.2,0.7c2.9,1.9,5.4,4.6,7.1,7.7v0c0,0,0,0,0,0c0,0.1,0.1,0.1,0.1,0.2c0,0,0,0,0,0c0.2,0.3,0.4,0.6,0.6,0.9
			c0.2,0.3,0.5,0.5,0.8,0.7c0.8,0.6,1.7,0.9,2.8,0.9c1,0,2-0.3,2.8-0.9c0.3-0.2,0.5-0.4,0.8-0.7c0.3-0.3,0.5-0.6,0.6-0.9
			c0,0,0,0,0,0c0-0.1,0.1-0.1,0.1-0.2c0,0,0,0,0,0v0c1.7-3.1,4.1-5.7,7.1-7.7c0.4-0.2,0.8-0.5,1.2-0.7c0.1,0,0.2-0.1,0.2-0.1
			c0.4-0.2,0.8-0.3,1.3-0.3c1.5,0,2.7,1.2,2.7,2.7c0,1-0.5,1.8-1.3,2.3c-0.2,0.1-0.4,0.2-0.5,0.3c-0.9,0.4-1.7,0.9-2.5,1.4
			c-1.9,1.3-3.6,2.9-4.9,4.8c-0.8,1.2-1.5,2.4-2,3.7c0,0.1-0.1,0.2-0.1,0.3c-0.3,0.7-0.8,1.4-1.3,1.9c0,0-0.1,0.1-0.1,0.1
			c-0.4,0.4-0.8,0.7-1.3,0.9c-0.4,0.2-0.7,0.4-1.1,0.5C58.2,29.3,57.6,29.4,57,29.4z"/>
		<path class="st0" d="M57,41.5c-1.7,0-3.2-0.8-4.2-2.1c-0.2-0.3-0.4-0.6-0.6-0.9c-0.1-0.3-0.2-0.5-0.3-0.8c0,0,0,0,0,0
			c0-0.1-0.1-0.2-0.1-0.3c-0.2-0.5-0.5-1.1-0.7-1.6v0c-0.6-1.3-1.4-2.6-2.2-3.8c-0.5-0.7-0.9-1.4-1.5-2.1c-1-1.3-2.1-2.6-3.4-3.8
			c-2.8-2.7-6-5-9.5-6.7c-0.1-0.1-0.3-0.1-0.4-0.2c-0.5-0.3-0.8-0.7-1.1-1.2c-0.1-0.1-0.1-0.3-0.2-0.5c-0.1-0.2-0.1-0.5-0.1-0.7
			c0-0.3,0.1-0.6,0.2-0.9c0.4-1,1.4-1.8,2.6-1.8c0.4,0,0.7,0.1,1.1,0.2c0,0,0,0,0.1,0c0.1,0.1,0.3,0.1,0.4,0.2c0,0,0,0,0,0
			c3,1.7,5.7,3.7,8.2,6.1c0.7,0.7,1.5,1.4,2.2,2.2c1.3,1.4,2.5,2.9,3.6,4.5c0.3,0.5,0.7,1,1,1.5c0.2,0.3,0.3,0.5,0.5,0.8v0
			c0.3,0.4,0.5,0.8,0.7,1.3c0,0,0,0,0,0.1c0,0,0,0.1,0.1,0.1c0.1,0.2,0.3,0.5,0.5,0.7c0.3,0.3,0.6,0.6,0.9,0.8
			c0.1,0.1,0.2,0.1,0.3,0.2c0.6,0.3,1.3,0.5,2,0.5c0.7,0,1.4-0.2,2-0.5c0.1-0.1,0.2-0.1,0.3-0.2c0.3-0.2,0.7-0.5,0.9-0.8
			c0.2-0.2,0.4-0.5,0.5-0.7c0,0,0-0.1,0.1-0.1c0,0,0,0,0-0.1c0.2-0.4,0.5-0.9,0.7-1.3v0c0.1-0.3,0.3-0.5,0.5-0.8
			c0.3-0.5,0.6-1,1-1.5c1.1-1.6,2.3-3.1,3.6-4.5c0.7-0.8,1.4-1.5,2.2-2.2c2.5-2.4,5.2-4.4,8.2-6.1c0,0,0,0,0,0
			c0.1-0.1,0.3-0.1,0.4-0.2c0,0,0,0,0.1,0c0.3-0.1,0.7-0.2,1.1-0.2c1.2,0,2.2,0.8,2.6,1.8c0.1,0.3,0.2,0.6,0.2,0.9
			c0,0.2,0,0.5-0.1,0.7c0,0.2-0.1,0.3-0.2,0.5c-0.2,0.5-0.6,0.9-1.1,1.2c-0.1,0.1-0.3,0.1-0.4,0.2c-3.5,1.7-6.8,4-9.5,6.7
			c-1.2,1.2-2.3,2.5-3.4,3.8c-0.5,0.7-1,1.4-1.5,2.1c-0.8,1.2-1.5,2.5-2.2,3.8v0c-0.3,0.5-0.5,1-0.7,1.6c0,0.1-0.1,0.2-0.1,0.3
			c0,0,0,0,0,0c-0.1,0.3-0.2,0.5-0.3,0.8c-0.2,0.3-0.3,0.6-0.6,0.9C60.2,40.7,58.7,41.5,57,41.5z"/>
		<path class="st0" d="M57,52.6c-0.8,0-1.6-0.1-2.3-0.2c-1.1-0.2-2.2-0.4-3.2-0.8c0,0-0.1,0-0.1,0c-0.1,0-0.2-0.1-0.4-0.2
			c0,0,0,0,0,0c-0.2-0.1-0.3-0.2-0.5-0.3c-0.4-0.4-0.7-1-0.7-1.6v0c0-0.1,0-0.2,0-0.3v0c0-0.3,0-0.6,0-0.8c0-1.4-0.2-2.7-0.5-4
			c-0.1-0.4-0.2-0.8-0.3-1.3c-0.7-2.3-1.9-4.3-3.4-6.1c-0.9-1-1.8-1.9-2.9-2.7c-0.6-0.4-1.2-0.8-1.8-1.2c-2.3-1.3-5-2.1-7.8-2.3
			c-0.3,0-0.6,0-0.8,0c-0.7,0-1.4,0-2.1,0.1c-0.3,0-0.6,0.1-0.9,0.1c-0.1,0-0.2,0-0.3,0c-3,0-5.5-2.5-5.5-5.5c0-1.1,0.3-2.2,0.9-3.1
			c0.1-0.1,0.1-0.2,0.2-0.3c0.2-0.2,0.4-0.4,0.6-0.6c0,0,0,0,0,0c1-0.9,2.3-1.5,3.8-1.5c0.1,0,0.2,0,0.3,0c0,0,0.1,0,0.1,0
			c0.5,0.1,1.1,0.2,1.6,0.4c4.7,1.2,8.9,3.6,12.2,6.9c1.6,1.6,2.9,3.3,4,5.2c0.1,0.1,0.1,0.2,0.2,0.3c1.4,2.3,2.4,4.9,2.9,7.6
			c0,0.1,0,0.2,0.1,0.3v0c0,0,0,0,0,0c0,0,0,0.1,0,0.1c0,0,0,0,0,0c0.1,0.5,0.3,0.9,0.6,1.4c0.7,1.3,1.8,2.4,3.1,3
			c0.9,0.4,1.8,0.6,2.8,0.6s2-0.2,2.8-0.6c1.3-0.6,2.5-1.7,3.1-3c0.2-0.4,0.4-0.9,0.6-1.4c0,0,0,0,0,0c0,0,0-0.1,0-0.1c0,0,0,0,0,0
			v0c0-0.1,0-0.2,0.1-0.3c0.6-2.7,1.6-5.3,2.9-7.6c0-0.1,0.1-0.2,0.2-0.3c1.1-1.9,2.5-3.6,4-5.2c3.3-3.3,7.5-5.8,12.2-6.9
			c0.5-0.1,1.1-0.3,1.6-0.4c0,0,0.1,0,0.1,0c0.1,0,0.2,0,0.3,0c1.5,0,2.8,0.6,3.8,1.5c0,0,0,0,0,0c0.2,0.2,0.4,0.4,0.6,0.6
			c0.1,0.1,0.2,0.2,0.2,0.3c0.6,0.9,0.9,1.9,0.9,3.1c0,3-2.5,5.5-5.5,5.5c-0.1,0-0.2,0-0.3,0c-0.3-0.1-0.6-0.1-0.9-0.1
			c-0.7-0.1-1.4-0.1-2.1-0.1c-0.3,0-0.6,0-0.8,0c-2.8,0.1-5.5,0.9-7.8,2.3c-0.6,0.4-1.2,0.8-1.8,1.2c-1,0.8-2,1.7-2.9,2.7
			c-1.5,1.8-2.7,3.8-3.4,6.1c-0.1,0.4-0.2,0.8-0.3,1.3c-0.3,1.3-0.5,2.6-0.5,4c0,0.3,0,0.6,0,0.8v0c0,0.1,0,0.2,0,0.3v0
			c0,0.6-0.3,1.2-0.7,1.6c-0.1,0.1-0.3,0.2-0.5,0.3c0,0,0,0,0,0c-0.1,0.1-0.2,0.1-0.4,0.2c0,0-0.1,0-0.1,0c-1,0.4-2.1,0.6-3.2,0.8
			C58.6,52.5,57.8,52.6,57,52.6z"/>
	</g>
	<g>
		<circle class="st0" cx="26.6" cy="36.3" r="3.6"/>
		<circle class="st0" cx="87.4" cy="36.3" r="3.6"/>
		<circle class="st0" cx="35.8" cy="36" r="3.2"/>
		<circle class="st0" cx="78.2" cy="36" r="3.2"/>
		<circle class="st0" cx="43.1" cy="39.7" r="2.2"/>
		<circle class="st0" cx="70.9" cy="39.7" r="2.2"/>
	</g>
	<g>
		<path class="st0" d="M44.2,45.6c-2.4-3.1-6.2-5.1-10.4-5.1c-3.3,0-6.3,1.2-8.6,3.1c-0.7,0.6-1.3,1.2-1.8,1.9c1.2,1,2.3,2.2,3,3.6
			c0,0.1,0.1,0.1,0.1,0.2c1.8,3.3,5.3,5.6,9.4,5.6c2,0,3.9-0.6,5.5-1.5c2-1.2,3.5-3,4.4-5.2C45.4,47.3,44.8,46.4,44.2,45.6z
			 M35.8,52.9c-2.7,0-4.9-2.2-4.9-4.9c0-2.7,2.2-4.9,4.9-4.9c2.7,0,4.9,2.2,4.9,4.9C40.7,50.8,38.5,52.9,35.8,52.9z"/>
		<path class="st0" d="M69.8,45.6c2.4-3.1,6.2-5.1,10.4-5.1c3.3,0,6.3,1.2,8.6,3.1c0.7,0.6,1.3,1.2,1.8,1.9c-1.2,1-2.3,2.2-3,3.6
			c0,0.1-0.1,0.1-0.1,0.2c-1.8,3.3-5.3,5.6-9.4,5.6c-2,0-3.9-0.6-5.5-1.5c-2-1.2-3.5-3-4.4-5.2C68.6,47.3,69.2,46.4,69.8,45.6z
			 M78.2,52.9c2.7,0,4.9-2.2,4.9-4.9c0-2.7-2.2-4.9-4.9-4.9c-2.7,0-4.9,2.2-4.9,4.9C73.3,50.8,75.5,52.9,78.2,52.9z"/>
	</g>
	<g>
		<path class="st0" d="M57,74.3c-2.4,0-4.5-0.9-6.1-2.4c-0.1-0.2-0.3-0.3-0.5-0.5c-0.4-0.4-0.9-0.7-1.4-1c-0.7-0.4-1.5-0.8-2.3-1
			c-0.7-0.2-1.5-0.3-2.3-0.3h0c0,0,0,0,0,0c-0.6,0-1.1,0.5-1.1,1.1c0,0.1,0,0.3,0.1,0.4c-0.3,0-0.6,0-0.8,0c-0.8,0-1.6-0.1-2.3-0.3
			c-0.1,0-0.2-0.1-0.2-0.1c-1.5-0.5-2.9-1.5-3.8-2.8c-0.1-0.1-0.1-0.2-0.2-0.3c-0.1-0.1-0.1-0.2-0.2-0.3c0,0-0.1-0.1-0.1-0.1
			c-0.3-0.6-0.5-1.2-0.5-1.9c0-0.1,0-0.1,0-0.2c0-0.1,0-0.2,0-0.3v0c0.4-4,3.8-7.1,7.9-7.1c1.9,0,3.7,0.7,5.1,1.8
			c0.1,0.1,0.1,0.1,0.2,0.2c0.2,0.1,0.5,0.2,0.8,0.2c0.2,0,0.4,0,0.5-0.1c0.4-0.2,0.8-0.5,0.9-1c0,0,0-0.1,0-0.1c0,0,0-0.1,0-0.1
			c0.2-1.1,0.3-2.2,0.3-3.3c0-0.5,0-1-0.1-1.5c1.9,0.8,4,1.2,6.2,1.2s4.3-0.4,6.2-1.2c0,0.5-0.1,1-0.1,1.5c0,1.1,0.1,2.2,0.3,3.3
			c0,0,0,0.1,0,0.1c0,0,0,0.1,0,0.1c0.1,0.5,0.4,0.8,0.9,1c0.2,0.1,0.3,0.1,0.5,0.1c0.3,0,0.6-0.1,0.8-0.2c0.1-0.1,0.2-0.1,0.2-0.2
			c1.4-1.1,3.1-1.8,5.1-1.8c4.1,0,7.5,3.1,7.9,7.1v0c0,0.1,0,0.2,0,0.3c0,0.1,0,0.1,0,0.2c0,0.7-0.2,1.4-0.5,1.9c0,0,0,0.1-0.1,0.1
			c-0.1,0.1-0.1,0.2-0.2,0.3c-0.1,0.1-0.1,0.2-0.2,0.3c-0.9,1.3-2.3,2.3-3.8,2.8c-0.1,0-0.2,0.1-0.2,0.1c-0.7,0.2-1.5,0.3-2.3,0.3
			c-0.3,0-0.6,0-0.8,0c0-0.1,0.1-0.2,0.1-0.4c0-0.6-0.5-1.1-1.1-1.1c0,0,0,0,0,0h0c-0.8,0-1.6,0.1-2.3,0.3c-0.8,0.2-1.6,0.6-2.3,1
			c-0.5,0.3-0.9,0.6-1.4,1c-0.2,0.1-0.3,0.3-0.5,0.5C61.5,73.4,59.4,74.3,57,74.3z"/>
	</g>
	<g class="st1">
		<path class="st2" d="M57,75.2c-4.5,0-8.8-0.6-13-1.6c-0.4-0.1-0.9-0.2-1.3-0.3c0,0,0,0,0,0c-0.7-0.1-1.4-0.3-2.1-0.6
			c0,0,0,0-0.1,0c-1.6-0.7-3-1.6-4.1-2.9c-0.1-0.1-0.2-0.3-0.4-0.4c-0.2-0.2-0.3-0.4-0.5-0.6c-0.1-0.1-0.2-0.2-0.2-0.3
			c-1.2-1.8-1.9-4-1.9-6.3c0-0.2,0-0.4,0-0.6c-0.3,0.2-0.7,0.4-1,0.6c-0.2,0.1-0.4,0.2-0.6,0.3c-0.8,0.4-1.7,0.7-2.6,1
			c-1,0.3-1.9,0.5-3,0.6C25.6,64,25,64,24.3,64h0c-1.4,0-2.8-0.2-4.2-0.5c-4.8-1.2-8.8-4.4-11.1-8.8c-0.4,0.9-0.7,2-0.7,3.1
			c0,1.5,0.5,3,1.3,4.1c0.2,0.3,0.5,0.6,0.7,0.9c5.2,6.6,8.3,14.8,8.3,23.8v0.1c0,1,0,1.9-0.1,2.9v0.1c0,21.2,17.2,38.4,38.4,38.4
			S95.4,111,95.4,89.8v-0.1c-0.1-1-0.1-1.9-0.1-2.9v-0.1c0-9,3.1-17.3,8.3-23.8c0.2-0.3,0.5-0.6,0.7-0.9c0.8-1.2,1.3-2.6,1.3-4.1
			c0-1.1-0.2-2.1-0.7-3.1c-2.2,4.3-6.2,7.6-11.1,8.8c-1.3,0.3-2.7,0.5-4.2,0.5h0c-0.7,0-1.3,0-1.9-0.1c-1-0.1-2-0.3-3-0.6
			c-0.9-0.3-1.8-0.6-2.6-1c-0.2-0.1-0.4-0.2-0.6-0.3c-0.3-0.2-0.7-0.4-1-0.6c0,0.2,0,0.4,0,0.6c0,2.3-0.7,4.5-1.9,6.3
			c-0.1,0.1-0.1,0.2-0.2,0.3c-0.2,0.2-0.3,0.4-0.5,0.6c-0.1,0.1-0.2,0.3-0.4,0.4c-1.1,1.2-2.5,2.2-4.1,2.9c0,0,0,0-0.1,0
			c-0.7,0.3-1.3,0.5-2.1,0.6c0,0,0,0,0,0c-0.4,0.1-0.9,0.2-1.3,0.3C65.8,74.6,61.5,75.2,57,75.2z M24.2,69.8
			c-0.1,0.1-0.1,0.2-0.2,0.4c-0.4,0.5-1,0.9-1.7,0.9c-1.2,0-2.2-1-2.2-2.2s1-2.2,2.2-2.2c1.2,0,2.2,1,2.2,2.2
			C24.4,69.2,24.4,69.5,24.2,69.8z M57,120c-16.7,0-30.1-13.5-30.1-30.1c0-5.8,1.6-11.2,4.5-15.8c1.7,1.1,3.8,1.8,6,1.8
			c0.2,0,0.4,0,0.6,0c0,0,0,0,0,0c3.1,2.8,7.3,4.5,11.8,4.5c2.6,0,5.1-0.6,7.3-1.6c2.2,1,4.7,1.6,7.3,1.6c4.5,0,8.6-1.7,11.8-4.5
			c0,0,0,0,0,0c0.2,0,0.4,0,0.6,0c2.2,0,4.3-0.6,6-1.8c2.8,4.6,4.5,10,4.5,15.8C87.1,106.5,73.7,120,57,120z"/>
	</g>
	<g>
		<path class="st0" d="M57,76c-4.5,0-8.8-0.6-13-1.6c-0.4-0.1-0.9-0.2-1.3-0.3c0,0,0,0,0,0c-0.7-0.1-1.4-0.3-2.1-0.6c0,0,0,0-0.1,0
			c-1.6-0.7-3-1.6-4.1-2.9c-0.1-0.1-0.2-0.3-0.4-0.4c-0.2-0.2-0.3-0.4-0.5-0.6c-0.1-0.1-0.2-0.2-0.2-0.3c-1.2-1.8-1.9-4-1.9-6.3
			c0-0.2,0-0.4,0-0.6c-0.3,0.2-0.7,0.4-1,0.6c-0.2,0.1-0.4,0.2-0.6,0.3c-0.8,0.4-1.7,0.7-2.6,1c-1,0.3-1.9,0.5-3,0.6
			c-0.6,0.1-1.3,0.1-1.9,0.1h0c-1.4,0-2.8-0.2-4.2-0.5c-4.8-1.2-8.8-4.4-11.1-8.8c-0.4,0.9-0.7,2-0.7,3.1c0,1.5,0.5,3,1.3,4.1
			c0.2,0.3,0.5,0.6,0.7,0.9c5.2,6.6,8.3,14.8,8.3,23.8v0.1c0,1,0,1.9-0.1,2.9v0.1c0,21.2,17.2,38.4,38.4,38.4s38.4-17.2,38.4-38.4
			v-0.1c-0.1-1-0.1-1.9-0.1-2.9v-0.1c0-9,3.1-17.3,8.3-23.8c0.2-0.3,0.5-0.6,0.7-0.9c0.8-1.2,1.3-2.6,1.3-4.1c0-1.1-0.2-2.1-0.7-3.1
			c-2.2,4.3-6.2,7.6-11.1,8.8c-1.3,0.3-2.7,0.5-4.2,0.5h0c-0.7,0-1.3,0-1.9-0.1c-1-0.1-2-0.3-3-0.6c-0.9-0.3-1.8-0.6-2.6-1
			c-0.2-0.1-0.4-0.2-0.6-0.3c-0.3-0.2-0.7-0.4-1-0.6c0,0.2,0,0.4,0,0.6c0,2.3-0.7,4.5-1.9,6.3c-0.1,0.1-0.1,0.2-0.2,0.3
			c-0.2,0.2-0.3,0.4-0.5,0.6c-0.1,0.1-0.2,0.3-0.4,0.4c-1.1,1.2-2.5,2.2-4.1,2.9c0,0,0,0-0.1,0c-0.7,0.3-1.3,0.5-2.1,0.6
			c0,0,0,0,0,0c-0.4,0.1-0.9,0.2-1.3,0.3C65.8,75.4,61.5,76,57,76z M21.8,75.2c-1.4-0.7-2.3-2.1-2.3-3.7c0-2.2,1.8-4.1,4.1-4.1
			c0.8,0,1.6,0.3,2.3,0.7C24.3,70.3,22.9,72.7,21.8,75.2z M88.2,68.1c0.7-0.4,1.4-0.7,2.3-0.7c2.2,0,4.1,1.8,4.1,4.1
			c0,1.6-0.9,3-2.3,3.7C91.1,72.7,89.7,70.3,88.2,68.1z M57,120.7c-16.7,0-30.1-13.5-30.1-30.1c0-5.8,1.6-11.2,4.5-15.8
			c1.7,1.1,3.8,1.8,6,1.8c0.2,0,0.4,0,0.6,0c0,0,0,0,0,0C41,79.3,45.2,81,49.7,81c2.6,0,5.1-0.6,7.3-1.6c2.2,1,4.7,1.6,7.3,1.6
			c4.5,0,8.6-1.7,11.8-4.5c0,0,0,0,0,0c0.2,0,0.4,0,0.6,0c2.2,0,4.3-0.6,6-1.8c2.8,4.6,4.5,10,4.5,15.8
			C87.1,107.2,73.7,120.7,57,120.7z"/>
	</g>
	<g>
		<path class="st0" d="M38.4,56.9c-3.3,3-7.6,4.8-12.4,4.8c-0.2,0-0.5,0-0.7,0c-0.7,0-1.5-0.1-2.2-0.2c-3.7-0.6-7.1-2.3-9.7-4.8
			c0,0,0,0-0.1-0.1c-0.3-0.3-0.6-0.6-0.8-0.8c0,0,0,0,0,0c-0.9-1.2-1.5-2.6-1.5-4.3c0-3.7,3-6.8,6.8-6.8c1.9,0,3.6,0.8,4.9,2.1
			c0.5,0.5,0.9,1.1,1.2,1.8c0.1,0.2,0.1,0.3,0.2,0.5c0.9,1.9,2.1,3.5,3.7,4.8c2.3,1.9,5.4,3.1,8.7,3.1C37.1,57,37.8,57,38.4,56.9z"
			/>
		<path class="st0" d="M75.6,56.9c3.3,3,7.6,4.8,12.4,4.8c0.2,0,0.5,0,0.7,0c0.7,0,1.5-0.1,2.2-0.2c3.7-0.6,7.1-2.3,9.7-4.8
			c0,0,0,0,0.1-0.1c0.3-0.3,0.6-0.6,0.8-0.8c0,0,0,0,0,0c0.9-1.2,1.5-2.6,1.5-4.3c0-3.7-3-6.8-6.8-6.8c-1.9,0-3.6,0.8-4.9,2.1
			c-0.5,0.5-0.9,1.1-1.2,1.8c-0.1,0.2-0.1,0.3-0.2,0.5c-0.9,1.9-2.1,3.5-3.7,4.8c-2.3,1.9-5.4,3.1-8.7,3.1
			C76.9,57,76.2,57,75.6,56.9z"/>
	</g>
	<g>
		<path class="st0" d="M57,88.1c-2.2,0-4.4,0.1-6.5,0.4c-2.7,0.3-5.3,0.7-7.9,1.4c-0.2,0-0.3,0.1-0.5,0.1c-0.6,0.1-1.2,0.2-1.9,0.2
			c-2.3,0-4.3-0.8-5.9-2.2c-0.1-0.1-0.2-0.1-0.2-0.2c-0.1-0.1-0.1-0.1-0.2-0.2c-0.4-0.4-0.7-0.9-0.8-1.5c0,0,0,0,0,0
			c0-0.1,0-0.2,0-0.3c0-0.1,0-0.2,0-0.3c0-0.3,0-0.5,0-0.8c0-1.3,0.3-2.6,0.8-3.8c0.4,0.6,0.8,1.2,1.3,1.7c1.1,1.1,2.4,1.9,3.9,2.3
			c0.8,0.3,1.7,0.4,2.6,0.4c0.6,0,1.2-0.1,1.7-0.2c0.2,0,0.4-0.1,0.6-0.1c0,0,0,0,0,0c1.6-0.4,3.3-0.7,5-0.9
			c0.8-0.1,1.6-0.2,2.4-0.3c1.9-0.2,3.8-0.3,5.8-0.3s3.9,0.1,5.8,0.3c0.8,0.1,1.6,0.2,2.4,0.3c1.7,0.2,3.3,0.5,5,0.9c0,0,0,0,0,0
			c0.2,0,0.4,0.1,0.6,0.1c0.6,0.1,1.1,0.2,1.7,0.2c0.9,0,1.8-0.1,2.6-0.4c1.5-0.4,2.8-1.2,3.9-2.3c0.5-0.5,0.9-1.1,1.3-1.7
			c0.5,1.2,0.8,2.4,0.8,3.8c0,0.3,0,0.5,0,0.8c0,0.1,0,0.2,0,0.3c0,0.1,0,0.2,0,0.3c0,0,0,0,0,0c-0.1,0.6-0.4,1.1-0.8,1.5
			c-0.1,0.1-0.1,0.1-0.2,0.2c-0.1,0.1-0.2,0.2-0.2,0.2c-1.6,1.4-3.7,2.2-5.9,2.2c-0.6,0-1.3-0.1-1.9-0.2c-0.2,0-0.3-0.1-0.5-0.1
			c-2.6-0.6-5.2-1.1-7.9-1.4C61.4,88.2,59.2,88.1,57,88.1z"/>
	</g>
	<g>
		<path class="st0" d="M21.3,40.8c-1.9,3.3-5.9,4.5-9.3,2.9c-0.2-0.1-0.3-0.2-0.5-0.3c-0.1-0.1-0.3-0.2-0.4-0.3
			c-6.5-4-8.7-12.5-4.8-19.2c3.8-6.7,12.2-9.1,19-5.5C22,16.8,17.9,18,16,21.3c-2,3.4-0.8,7.8,2.6,9.7C22.1,33,23.3,37.3,21.3,40.8z
			"/>
		<path class="st0" d="M92.7,40.8c1.9,3.3,5.9,4.5,9.3,2.9c0.2-0.1,0.3-0.2,0.5-0.3c0.1-0.1,0.3-0.2,0.4-0.3
			c6.5-4,8.7-12.5,4.8-19.2c-3.8-6.7-12.2-9.1-19-5.5c3.3-1.6,7.4-0.4,9.3,2.9c2,3.4,0.8,7.8-2.6,9.7C91.9,33,90.7,37.3,92.7,40.8z"
			/>
	</g>
</g>
</svg>
