<?xml version="1.0" encoding="utf-8"?>
<!-- Generator: Adobe Illustrator 22.0.0, SVG Export Plug-In . SVG Version: 6.00 Build 0)  -->
<svg version="1.1" id="图层_1" xmlns="http://www.w3.org/2000/svg" xmlns:xlink="http://www.w3.org/1999/xlink" x="0px" y="0px"
	 viewBox="0 0 900 637" style="enable-background:new 0 0 900 637;" xml:space="preserve">
<style type="text/css">
	.st0{fill:#FFFFFF;}
</style>
<path class="st0" d="M664.5,272.1c0,62-3.5,122.4-10.2,180.5c-0.3,2.3-0.5,4.6-0.8,6.8c-3,13.2-13.8,23.5-27.3,25.5l0,0
	c-1.1,0.1-2.2,0.2-3.2,0.3c-51.9,5.3-105.5,8-160.4,8c-64,0-126.3-3.8-186.1-10.9c-1.2-0.1-2.4-0.3-3.6-0.4c0,0,0,0-0.1,0
	c-13.2-2.4-23.7-12.5-26.6-25.6c-0.3-2.2-0.5-4.4-0.8-6.7c-6.5-57.3-9.9-116.7-9.9-177.8c0-28.5,0.7-56.6,2.2-84.3
	c0-0.8,0.1-1.6,0.1-2.3c1.3-14.6,12.1-26.5,26.2-29.5c1.8-0.2,3.7-0.5,5.5-0.7c61.9-7.7,126.5-11.7,193-11.7c57,0,112.7,3,166.5,8.7
	c2.5,0.3,5,0.5,7.4,0.8c13.1,2.9,23.3,13.7,25.5,27.1c0.1,2.4,0.3,4.7,0.4,7.1l0,0C663.7,215.1,664.5,243.5,664.5,272.1z"/>
</svg>
