<?xml version="1.0" encoding="utf-8"?>
<!-- Generator: Adobe Illustrator 22.0.0, SVG Export Plug-In . SVG Version: 6.00 Build 0)  -->
<svg version="1.1" id="图层_1" xmlns="http://www.w3.org/2000/svg" xmlns:xlink="http://www.w3.org/1999/xlink" x="0px" y="0px"
	 viewBox="0 0 1020 700" style="enable-background:new 0 0 1020 700;" xml:space="preserve">
<style type="text/css">
	.st0{fill:#FFFFFF;}
	.st1{fill:none;stroke:#FFFFFF;stroke-width:3;stroke-miterlimit:10;}
	.st2{fill:#FF0000;}
	.st3{fill:none;stroke:#FFFFFF;stroke-width:7;stroke-linecap:round;stroke-linejoin:round;stroke-miterlimit:10;}
	.st4{font-family:'AdobeSongStd-Light-GBpc-EUC-H';}
	.st5{font-size:61.4963px;}
</style>
<g>
	<path class="st0" d="M756.8,80.8c-1.4-5.3-6.1-9.1-11.8-9.1c0,0-111-8.8-288.4-8.8s-288.4,8.8-288.4,8.8c-5.7,0-10.5,3.9-11.8,9.1
		v0.1c-16.7,66.2-25.6,135.5-25.6,206.8c0,68.4,8.2,135,23.7,198.7v0.1c0.1,0.6,0.3,1,0.4,1.6c0,0,0,0,0,0.1
		c1.4,4.5,5.5,7.9,10.4,8.4c0,0,30.2,2.1,74.5,4.4h0.1c1.2,4.2,2.3,8.4,3.5,12.6c64.5,6.9,130,10.4,196.4,10.4
		c79.4,0,157.6-5,234.4-14.8c0.9-2.8,1.9-5.6,2.8-8.4h0c41.9-2.3,70-4.2,70-4.2c5.4,0,9.9-3.4,11.5-8.2c0.2-0.7,0.4-1.4,0.6-2.2
		c7.7-31.8,13.6-64.3,17.5-97.5c4-33.1,6-66.8,6-101C782.5,216.3,773.5,147,756.8,80.8z M172.8,487.7c-5.7-0.5-10.3-3.9-11.7-9.1
		c0-0.1,0-0.2-0.1-0.2c-14.3-61.3-22-125.2-22-190.9c0-66.7,7.3-131,22.1-193.3c0.1-0.5,0.2-1,0.4-1.5c0.8-2.5,2.2-4.3,4.2-5.6
		c2-1.4,4.5-2.3,7.3-2.9c0,0,49.5-10.9,283.5-10.9c74.4,0,130,1.1,171.3,2.6c1,25.1,4,117.9,4,200.9c0,73.1-2.4,171-3.6,214.9
		c-51.4,1.5-113.7,2.8-171.6,2.8C325.3,494.5,172.8,487.7,172.8,487.7z M751.5,477.6c-0.1,0.7-0.3,1.2-0.5,1.8
		c-1.4,4.4-5.3,7.7-10,8.3c0,0-42.2,2.1-106.5,4c1.2-43.8,3.1-140.9,3.1-213.9c0-82.9-3.8-176.4-4.7-201.7
		c87.5,3.2,106.2,8.3,106.2,8.3c5,0.8,9.1,3.5,10.4,8c0.2,0.8,0.4,1.6,0.6,2.4c14.7,62,23.1,126.2,23.1,192.8
		C773.2,353,765.7,416.5,751.5,477.6z"/>
	<path class="st0" d="M605.9,147.6c-0.1-2.5-0.3-4.8-0.4-7.3c-2.3-13.7-12.6-24.6-26-27.6c-2.5-0.3-5.1-0.6-7.5-0.8
		c-54.8-5.8-111.6-8.9-169.7-8.9c-67.8,0-133.7,4.1-196.8,12c-1.9,0.2-3.8,0.5-5.7,0.8c-14.3,3-25.4,15.2-26.7,30.1
		c0,0.8-0.1,1.6-0.1,2.4c-1.5,28.3-2.3,56.9-2.3,86c0,62.2,3.5,122.8,10.1,181.2c0.3,2.3,0.5,4.5,0.8,6.8
		c2.9,13.3,13.7,23.7,27.2,26c0,0,0,0,0.1,0c1.2,0.2,2.5,0.3,3.7,0.5c61,7.3,124.4,11,189.8,11c55.9,0,110.7-2.8,163.6-8.2
		c1.1-0.1,2.2-0.2,3.3-0.4c6.9-1,13.1-4.2,18-8.7c4.9-4.6,8.4-10.5,10-17.3c0.3-2.4,0.6-4.6,0.8-7c6.8-59.2,10.4-120.9,10.4-184.1
		C608.2,205,607.4,176,605.9,147.6z M590.4,420.3c-1.5,6.5-4.9,12.3-9.6,16.7c-4.7,4.4-10.7,7.4-17.4,8.4c-1.1,0.2-2.1,0.3-3.2,0.4
		c-51.2,5.2-104.2,7.9-158.2,7.9c-63.2,0-124.6-3.6-183.6-10.7c-1.2-0.2-2.4-0.3-3.6-0.5c-0.1,0-0.1,0-0.1,0
		c-13-2.3-23.4-12.3-26.3-25.2c-0.3-2.2-0.5-4.4-0.7-6.6c-6.4-56.5-9.8-115.1-9.8-175.3c0-28.1,0.7-55.8,2.2-83.2
		c0-0.7,0.1-1.6,0.1-2.3c1.3-14.4,12-26.2,25.8-29.1c1.8-0.3,3.6-0.5,5.5-0.7c61-7.6,124.8-11.6,190.3-11.6
		c56.2,0,111.2,3,164.2,8.6c2.4,0.3,4.8,0.5,7.3,0.8c13,2.9,23,13.5,25.2,26.7c0.1,2.4,0.3,4.6,0.4,7c1.5,27.5,2.2,55.5,2.4,83.5
		c0,61.2-3.5,120.8-10,178.1C590.9,415.9,590.6,418.1,590.4,420.3z"/>
	<g>
		<path class="st0" d="M745.4,121.2c-0.2-2.5-2.3-4.4-4.7-4.4l-85.9-0.9c-2,0-3.6,1.6-3.6,3.6l0.2,73.1c0,2.4,1.8,4.2,4.1,4.2
			l88.4,0.2c4,0,7.2-2.5,7.1-6.6L745.4,121.2z M741.5,194.4l-83.2-0.2c-2.2,0-3.9-1.8-3.9-4l-0.2-68.7c0-1.9,1.5-3.4,3.4-3.4
			l80.8,0.9c2.3,0,4.3,1.8,4.4,4.2l5.3,65C748.2,192.1,745.2,194.4,741.5,194.4z"/>
		<path class="st1" d="M700.5,121.9c-17.8,0-32.2,15.4-32.2,34.3s14.4,34.3,32.2,34.3c17.8,0,32.2-15.4,32.2-34.3
			S718.4,121.9,700.5,121.9z"/>
	</g>
	<g>
		<path class="st0" d="M744.9,203.6l-86.8,0.2c-2.1,0-5,1.3-5,3.4v70c0,2.9,3,7.5,5.9,7.5l86.6-2.5c3.1,0,5.6-2.5,5.5-5.5l0.3-66.7
			C751.5,205.9,749.2,203.7,744.9,203.6z M748.4,274.9c0.1,2.8-2.2,5.2-5.2,5.2l-81.7,2.3c-2.8,0-5.6-4.4-5.6-7.1v-66
			c0-2,2.8-3.2,4.7-3.2l81.9-0.2c4,0.1,6.1,2.2,6.1,6.2L748.4,274.9z"/>
		<path class="st1" d="M702.7,208.8c-17.3,0-31.3,15.4-31.3,34.3c0,19,14,34.3,31.3,34.3c17.3,0,31.4-15.3,31.3-34.3
			C734.1,224.2,720.1,208.8,702.7,208.8z"/>
	</g>
	<g>
		<circle class="st2" cx="744.1" cy="127.2" r="13.2"/>
		<circle class="st0" cx="978.2" cy="76" r="13.2"/>
		<polyline class="st3" points="767,113.8 821.7,75.5 947.5,75.5 		"/>
	</g>
	<g>
		<circle class="st2" cx="275.9" cy="240.1" r="13.2"/>
		<circle class="st0" cx="41.8" cy="188.9" r="13.2"/>
		<polyline class="st3" points="253,226.6 198.3,188.3 72.5,188.3 		"/>
	</g>
	<g>
		<circle class="st2" cx="749.1" cy="276.5" r="13.2"/>
		<circle class="st0" cx="978.2" cy="321.1" r="13.2"/>
		<polyline class="st3" points="769.8,282.4 823.7,321.1 949.5,321.1 		"/>
	</g>
</g>
<text transform="matrix(1 0 0 1 264.0148 625.7326)" class="st0 st4 st5">点击切换电视画面</text>
</svg>
