<?xml version="1.0" encoding="utf-8"?>
<!-- Generator: Adobe Illustrator 22.0.0, SVG Export Plug-In . SVG Version: 6.00 Build 0)  -->
<svg version="1.1" id="图层_1" xmlns="http://www.w3.org/2000/svg" xmlns:xlink="http://www.w3.org/1999/xlink" x="0px" y="0px"
	 viewBox="0 0 900 637" style="enable-background:new 0 0 900 637;" xml:space="preserve">
<style type="text/css">
	.st0{fill:#493927;}
	.st1{fill:#4C3B28;}
	.st2{fill:#7C7364;}
	.st3{fill:none;stroke:#000000;stroke-miterlimit:10;}
	.st4{fill:#111111;}
	.st5{fill:#1C1C1C;}
	.st6{fill:#7B6E5B;}
	.st7{fill:#7C4048;}
	.st8{fill:#282828;}
	.st9{fill:#303030;}
</style>
<g>
	<g>
		<path class="st0" d="M757.1,543c-1.4,4.5-2.9,9-4.4,13.4c-81.4,10.4-164.4,15.7-248.6,15.7c-70.4,0-139.9-3.7-208.3-11
			c-1.7-6-3.4-12-5-18.1L757.1,543L757.1,543z"/>
		<path class="st1" d="M840.5,102C840.5,101.9,840.5,101.9,840.5,102c-1.5-5.6-6.5-9.7-12.5-9.7c0,0-117.7-9.3-305.9-9.3
			s-305.9,9.3-305.9,9.3c-6,0-11.1,4.1-12.5,9.6v0.1c-17.7,70.2-27.2,143.7-27.2,219.4c0,72.6,8.7,143.2,25.1,210.8v0.1
			c0.1,0.6,0.3,1.1,0.4,1.7c0,0,0,0,0,0.1c1.5,4.8,5.8,8.4,11,8.9c0,0,32,2.2,79,4.7c63.5,3.4,154.3,7.4,230.1,7.4
			c77.6,0,170.3-4.2,233.6-7.6c44.4-2.4,74.3-4.5,74.3-4.5c5.7,0,10.5-3.6,12.2-8.7l0,0c0.2-0.7,0.4-1.5,0.6-2.3l0,0
			c16.3-67.5,25-138,25-210.5C867.7,245.7,858.2,172.2,840.5,102z M834.8,522.9c-0.1,0.7-0.3,1.3-0.5,1.9c-1.5,4.7-5.6,8.2-10.6,8.8
			c0,0-162.5,7.2-301.7,7.2s-301-7.2-301-7.2c-6-0.5-10.9-4.1-12.4-9.6c0-0.1,0-0.2-0.1-0.2c-15.2-65-23.3-132.8-23.3-202.5
			c0-70.8,7.7-139,23.4-205c0.1-0.5,0.2-1.1,0.4-1.6l0,0c1.6-5.2,6.3-7.7,12.2-9c0,0,52.5-11.6,300.7-11.6s299.7,11.6,299.7,11.6
			c5.3,0.8,9.6,3.7,11,8.5c0.2,0.8,0.4,1.7,0.6,2.5c15.6,65.8,24.5,133.9,24.5,204.5C857.9,390.7,849.9,458.1,834.8,522.9
			L834.8,522.9z"/>
		<path d="M837,114.3c-0.2-0.8-0.4-1.7-0.6-2.5c-1.4-4.9-5.9-7.8-11.1-8.6c0,0-52-11.7-302.6-11.7C272,91.5,219,103.1,219,103.1
			c-6.1,1-10.7,3.8-12.3,9.1l0,0c-0.1,0.5-0.3,1.1-0.4,1.6C190.4,180.4,182,249.9,182,321.4c0,70.4,8.1,138.8,23.5,204.5v0.2
			c1.5,5.5,6.5,9.6,12.5,9.6c0,0,163.4,7.3,303.9,7.3s304.5-7.3,304.5-7.3c5.1-0.6,9.2-4.2,10.7-8.9c0.2-0.6,0.3-1.3,0.5-1.9l0,0
			c15.2-65.4,23.3-133.5,23.3-203.5C861.1,250.1,852.7,180.7,837,114.3z M834.8,522.9L834.8,522.9c-0.1,0.7-0.3,1.3-0.5,1.9
			c-1.5,4.7-5.6,8.2-10.6,8.8c0,0-162.5,7.2-301.7,7.2s-301-7.2-301-7.2c-6-0.5-10.9-4.1-12.4-9.6c0-0.1,0-0.2-0.1-0.2
			c-15.2-65-23.3-132.8-23.3-202.5c0-70.8,7.7-139,23.4-205c0.1-0.5,0.2-1.1,0.4-1.6l0,0c1.6-5.2,6.3-7.7,12.2-9
			c0,0,52.5-11.6,300.7-11.6s299.7,11.6,299.7,11.6c5.3,0.8,9.6,3.7,11,8.5c0.2,0.8,0.4,1.7,0.6,2.5
			c15.6,65.8,24.5,133.9,24.5,204.5C857.9,390.7,849.9,458.1,834.8,522.9z"/>
		<path class="st2" d="M857.9,321.3c0,69.3-8,136.8-23.1,201.5l0,0c-0.1,0.7-0.3,1.3-0.5,1.9c-1.5,4.7-5.6,8.2-10.6,8.8
			c0,0-162.5,7.2-301.7,7.2s-301-7.2-301-7.2c-6-0.5-10.9-4.1-12.4-9.6c0-0.1,0-0.2-0.1-0.2c-15.2-65-23.3-132.8-23.3-202.5
			c0-70.8,7.7-139,23.4-205c0.1-0.5,0.2-1.1,0.4-1.6l0,0c1.6-5.2,6.3-7.7,12.2-9c0,0,52.5-11.6,300.7-11.6s299.7,11.6,299.7,11.6
			c5.3,0.8,9.6,3.7,11,8.5c0.2,0.8,0.4,1.7,0.6,2.5C849,182.6,857.9,250.7,857.9,321.3z"/>
	</g>
	<g>
		<path d="M709.2,309.7c0,77.8-2.5,182.4-3.8,228.1c-0.5,0-0.9,0-1.4,0c1.2-45.8,3.8-150.3,3.8-228.2c0-88.1-3.2-186.7-4.2-212.7
			c0.5,0,0.9,0,1.4,0C705.9,123.1,709.2,221.6,709.2,309.7z"/>
		<path d="M714.9,309.8c0,10.1,0,20.6-0.1,31.4c0,1.6,0,3.3,0,4.9c0,1.1,0,2.2,0,3.2c0,1.6,0,3.3,0,4.9c0,1.1,0,2.2,0,3.2
			c0,1.6,0,3.3,0,4.9c0,1.1,0,2.2,0,3.2c0,1.6,0,3.3-0.1,4.9c0,1.1,0,2.2,0,3.2c0,1.6,0,3.3-0.1,4.9c0,1.1,0,2.2,0,3.2
			c0,1.6,0,3.3-0.1,4.9c0,1.1,0,2.2,0,3.2c0,1.6,0,3.3-0.1,4.9c0,1.1,0,2.2-0.1,3.2c0,1.6,0,3.3-0.1,4.9c0,1.1,0,2.2-0.1,3.2
			c0,1.6-0.1,3.3-0.1,4.9c0,1.1,0,2.2-0.1,3.2c0,1.6-0.1,3.3-0.1,4.9c0,1.1,0,2.2-0.1,3.2c0,1.6-0.1,3.3-0.1,4.9
			c0,1.1,0,2.2-0.1,3.2c0,1.6-0.1,3.3-0.1,4.9c0,1.1,0,2.2-0.1,3.2c0,1.6-0.1,3.3-0.1,4.9c0,1.1,0,2.2-0.1,3.2
			c0,1.6-0.1,3.3-0.1,4.9c0,1.1,0,2.2-0.1,3.2c0,1.6-0.1,3.3-0.1,4.9c0,1.1-0.1,2.2-0.1,3.2c0,1.6-0.1,3.3-0.1,4.9
			c0,1.1,0,2.2-0.1,3.2c0,1.6-0.1,3.3-0.1,4.9c0,1.1,0,2.2-0.1,3.2c0,1.7-0.1,3.3-0.1,4.9c-0.5,21.3-0.9,39.7-1.3,53.2
			c-0.5,0-0.9,0-1.4,0c0.4-13.4,0.8-31.8,1.3-53.2c0-1.6,0.1-3.3,0.1-4.9c0-1.1,0-2.1,0.1-3.2c0-1.6,0.1-3.3,0.1-4.9
			c0-1.1,0-2.1,0.1-3.2c0-1.6,0.1-3.3,0.1-4.9c0-1.1,0-2.1,0.1-3.2c0-1.6,0.1-3.3,0.1-4.9c0-1.1,0-2.1,0.1-3.2
			c0-1.6,0.1-3.3,0.1-4.9c0-1.1,0-2.1,0.1-3.2c0-1.6,0.1-3.3,0.1-4.9c0-1.1,0-2.1,0.1-3.2c0-1.3,0.1-2.6,0.1-3.9c0-0.3,0-0.6,0-1
			c0-1.1,0-2.1,0.1-3.2c0-1.6,0.1-3.3,0.1-4.9c0-1.1,0-2.2,0.1-3.2c0-1.6,0.1-3.3,0.1-4.9c0-1.1,0-2.1,0.1-3.2
			c0-1.6,0.1-3.3,0.1-4.9c0-1.1,0-2.2,0.1-3.2c0-1.6,0-3.3,0.1-4.9c0-1.1,0-2.1,0.1-3.2c0-1.6,0-3.3,0.1-4.9c0-1.1,0-2.1,0.1-3.2
			c0-1.6,0-3.3,0.1-4.9c0-1.1,0-2.2,0-3.2s0-2,0-3c0-0.6,0-1.3,0-1.9c0-1.1,0-2.2,0-3.2c0-1.6,0-3.3,0.1-4.9c0-1.1,0-2.2,0-3.2
			c0-1.6,0-3.3,0-4.9c0-1.1,0-2.2,0-3.2c0-1.6,0-3.3,0-4.9c0-1.1,0-2.2,0-3.2c0-0.8,0-1.6,0-2.5c0-0.8,0-1.6,0-2.4
			c0.1-10.8,0.1-21.4,0.1-31.6c0-87.9-3.2-186.2-4.2-212.5c0.5,0,0.9,0,1.3,0.1C711.7,123.4,714.9,221.9,714.9,309.8z"/>
		<path d="M840.8,238.7c0-39.9-7.9-100-8.1-100.8c-1.1-3.3-4-5.7-7.5-6.1c-0.4,0-1.8-0.2-2.2-0.1c0,0-92.2-0.1-92.6-0.1
			c-0.3,0-0.7,0-1,0.1c-4,0.4-7.2,3.6-7.6,7.6c0,0,1.2,175.2,1.2,175.5s0,0.6,0,0.9c0.4,4.2,3.7,7.5,7.9,8c0.3,0,0.7,0.1,1,0.1
			s98.9-0.1,98.9-0.1c4.6,0,8.4-3.5,9-8c0-0.4,0-0.9,0.1-1.3C840.8,298.3,841.5,273.3,840.8,238.7z M838.4,312.6
			c0,0.4,0,0.9-0.1,1.3c-0.5,4.4-4.3,7.8-8.8,7.8c0,0-96,0.1-96.3,0.1s-0.7,0-1-0.1c-4.1-0.5-7.3-3.7-7.7-7.8c0-0.3,0-0.6,0-0.9
			c0-0.2-1.2-172.5-1.2-172.5c0.4-3.9,3.5-7,7.4-7.5c0.3,0,0.6-0.1,0.9-0.1s90.2,0.1,90.2,0.1c0.3,0,1.8,0.1,2.2,0.1
			c3.5,0.4,6.3,2.7,7.3,6c0.3,0.9,7.9,59.9,7.9,99.2C839.9,272.3,839.2,296.8,838.4,312.6z"/>
		<path class="st3" d="M838.4,312.6c0,0.4,0,0.9-0.1,1.3c-0.5,4.4-4.3,7.8-8.8,7.8c0,0-96,0.1-96.3,0.1s-0.7,0-1-0.1
			c-4.1-0.5-7.3-3.7-7.7-7.8c0-0.3,0-0.6,0-0.9c0-0.2-1.2-172.5-1.2-172.5c0.4-3.9,3.5-7,7.4-7.5c0.3,0,0.6-0.1,0.9-0.1
			s90.2,0.1,90.2,0.1c0.3,0,1.8,0.1,2.2,0.1c3.5,0.4,6.3,2.7,7.3,6c0.3,0.9,7.9,59.9,7.9,99.2C839.9,272.3,839.2,296.8,838.4,312.6z
			"/>
		<g>
			<path class="st4" d="M857.7,338.1c0,1.4,0,2.8-0.1,4.2l-142.8,3.9c0-1.6,0-3.3,0-4.9L857.7,338.1z"/>
			<path class="st4" d="M857.5,346.2c0,1.4-0.1,2.8-0.1,4.2l-142.7,3.9c0-1.6,0-3.3,0-4.9L857.5,346.2z"/>
			<path class="st4" d="M857.3,354.4c-0.1,1.4-0.1,2.8-0.2,4.2l-142.5,3.9c0-1.6,0-3.3,0-4.9L857.3,354.4z"/>
			<path class="st4" d="M856.9,362.5c-0.1,1.4-0.1,2.8-0.2,4.2l-142.2,3.9c0-1.6,0-3.3,0.1-4.9L856.9,362.5z"/>
			<path class="st4" d="M856.5,370.7c-0.1,1.4-0.1,2.8-0.2,4.2l-141.8,3.9c0-1.6,0-3.3,0.1-4.9L856.5,370.7z"/>
			<path class="st4" d="M856,378.8c-0.1,1.4-0.2,2.8-0.3,4.2l-141.4,3.8c0-1.6,0-3.3,0.1-4.9L856,378.8z"/>
			<path class="st4" d="M855.5,387c-0.1,1.4-0.2,2.8-0.3,4.2l-141,3.8c0-1.6,0-3.3,0.1-4.9L855.5,387z"/>
			<path class="st4" d="M854.8,395.1c-0.1,1.4-0.2,2.8-0.3,4.2l-140.4,3.8c0-1.6,0-3.3,0.1-4.9L854.8,395.1z"/>
			<path class="st4" d="M854.1,403.3c-0.1,1.4-0.3,2.8-0.4,4.2L714,411.2c0-1.6,0.1-3.3,0.1-4.9L854.1,403.3z"/>
			<path class="st4" d="M853.4,411.4c-0.1,1.4-0.3,2.8-0.4,4.2l-139.1,3.8c0-1.6,0.1-3.3,0.1-4.9L853.4,411.4z"/>
			<path class="st4" d="M852.5,419.6c-0.1,1.4-0.3,2.8-0.5,4.2l-138.3,3.8c0-1.6,0.1-3.3,0.1-4.9L852.5,419.6z"/>
			<path class="st4" d="M851.5,427.7c-0.2,1.4-0.3,2.8-0.5,4.2l-137.5,3.7c0-1.6,0.1-3.3,0.1-4.9L851.5,427.7z"/>
			<path class="st4" d="M850.5,435.9c-0.2,1.4-0.4,2.8-0.6,4.2l-136.6,3.7c0-1.6,0.1-3.3,0.1-4.9L850.5,435.9z"/>
			<path class="st4" d="M849.4,444c-0.2,1.4-0.4,2.8-0.6,4.2l-135.6,3.7c0-1.6,0.1-3.3,0.1-4.9L849.4,444z"/>
			<path class="st4" d="M848.3,452.2c-0.2,1.4-0.4,2.8-0.6,4.2l-134.6,3.7c0-1.6,0.1-3.3,0.1-4.9L848.3,452.2z"/>
			<path class="st4" d="M847,460.4c-0.2,1.4-0.4,2.8-0.7,4.2l-133.5,3.6c0-1.6,0.1-3.3,0.1-4.9L847,460.4z"/>
			<path class="st4" d="M845.7,468.5c-0.2,1.4-0.5,2.8-0.7,4.2l-132.3,3.6c0-1.6,0.1-3.3,0.1-4.9L845.7,468.5z"/>
			<path class="st4" d="M844.3,476.7c-0.2,1.4-0.5,2.8-0.8,4.2l-131,3.6c0-1.6,0.1-3.3,0.1-4.9L844.3,476.7z"/>
		</g>
		<path class="st5" d="M668.7,508.5c0,0-93.6,8.8-213.3,8.8s-209.8-7.8-209.8-7.8c-24.3-2.1-31.3-15.7-35-40.8
			c0,0-9.1-72.9-9.1-170.8s1.7-130.7,1.7-130.7c0.6-23.1,3-40,28.5-41.1c0,0,99.3-6.4,242.3-6.4s189.4,4.4,189.4,4.4
			c24.1,2.3,28.6,13.6,30.6,37.1c0,0,4.9,45.6,4.9,140.9S694,468.8,694,468.8C692.4,495.8,692.6,506.1,668.7,508.5z"/>
	</g>
	<g>
		<path class="st6" d="M680.4,172.8L680.4,172.8c-0.1-2.6-0.3-5.1-0.4-7.7c-2.4-14.5-13.4-26.1-27.6-29.3c-2.7-0.3-5.4-0.6-8-0.9
			c-58.1-6.1-118.4-9.4-180-9.4c-71.9,0-141.8,4.4-208.7,12.7c-2,0.2-4,0.5-6,0.8c-15.2,3.2-26.9,16.1-28.3,31.9
			c0,0.8-0.1,1.7-0.1,2.5c-1.6,30-2.4,60.4-2.4,91.2c0,66,3.7,130.3,10.7,192.2c0.3,2.4,0.5,4.8,0.8,7.2
			c3.1,14.1,14.5,25.1,28.8,27.6c0,0,0,0,0.1,0c1.3,0.2,2.6,0.3,3.9,0.5c64.7,7.7,132,11.7,201.3,11.7c59.3,0,117.4-3,173.5-8.7
			c1.2-0.1,2.3-0.2,3.5-0.4l0,0c14.6-2.2,26.3-13.3,29.6-27.6c0.3-2.5,0.6-4.9,0.9-7.4c7.2-62.8,11-128.2,11-195.3
			C682.8,233.7,682,203,680.4,172.8z M667.3,457c-0.3,2.4-0.6,4.8-0.8,7.2c-3.2,14-14.7,24.9-29,27.1l0,0c-1.1,0.1-2.3,0.2-3.4,0.3
			c-55,5.6-111.8,8.5-170,8.5c-67.8,0-133.8-4-197.2-11.5c-1.3-0.1-2.5-0.3-3.8-0.5H263c-14-2.5-25.1-13.3-28.2-27.1
			c-0.3-2.3-0.5-4.7-0.8-7c-6.9-60.7-10.5-123.7-10.5-188.4c0-30.2,0.8-60,2.3-89.4c0-0.8,0.1-1.7,0.1-2.5
			c1.4-15.5,12.8-28.1,27.7-31.3c1.9-0.3,3.9-0.5,5.8-0.7c65.6-8.1,134.1-12.4,204.5-12.4c60.4,0,119.4,3.2,176.4,9.2
			c2.6,0.3,5.3,0.6,7.9,0.9c13.9,3.1,24.7,14.5,27,28.7c0.2,2.5,0.3,5,0.4,7.5l0,0c1.6,29.6,2.4,59.6,2.4,90
			C678.1,331.4,674.4,395.4,667.3,457z"/>
		<path d="M678.1,265.7c0,65.7-3.7,129.7-10.8,191.3c-0.3,2.4-0.6,4.8-0.8,7.2c-3.2,14-14.7,24.9-29,27.1l0,0
			c-1.1,0.1-2.3,0.2-3.4,0.3c-55,5.6-111.8,8.5-170,8.5c-67.8,0-133.8-4-197.2-11.5c-1.3-0.1-2.5-0.3-3.8-0.5H263
			c-14-2.5-25.1-13.3-28.2-27.1c-0.3-2.3-0.5-4.7-0.8-7c-6.9-60.7-10.5-123.7-10.5-188.4c0-30.2,0.8-60,2.3-89.4
			c0-0.8,0.1-1.7,0.1-2.5c1.4-15.5,12.8-28.1,27.7-31.3c1.9-0.3,3.9-0.5,5.8-0.7c65.6-8.1,134.1-12.4,204.5-12.4
			c60.4,0,119.4,3.2,176.4,9.2c2.6,0.3,5.3,0.6,7.9,0.9c13.9,3.1,24.7,14.5,27,28.7c0.2,2.5,0.3,5,0.4,7.5l0,0
			C677.3,205.3,678.1,235.3,678.1,265.7z"/>
	</g>
	<path class="st7" d="M740.6,498.4l-10.2,10c-0.7,0.7-0.8,1.9,0,2.7l9.2,9.6c0.7,0.7,1.9,0.8,2.6,0.1l10.6-9.5
		c0.8-0.7,0.9-2,0.1-2.7l-9.6-10.1C742.6,497.6,741.3,497.6,740.6,498.4z"/>
	<ellipse cx="825.3" cy="503.9" rx="6.5" ry="7.1"/>
	<g>
		<path d="M806.3,501.8c-0.5-0.1-0.9-0.1-1.4-0.1c-3.7,0-6.8,2.4-7.9,5.7l-5.1-4.8l0,0c0.9-3.7,3.4-6.6,6.7-8.1L806.3,501.8z"/>
		<path d="M817.9,514.4c0,4.6-3.7,8.4-8.4,8.4c-1.7,0-3.3-0.5-4.7-1.4c-0.7-0.5-1.3-1.1-1.9-1.7c-0.4-0.5-0.8-1.1-1.1-1.7
			c-0.1-0.1-0.1-0.3-0.2-0.4c-0.4-0.9-0.6-2-0.6-3c0-0.9,0.2-1.8,0.4-2.7c1.1-3.3,4.2-5.7,7.9-5.7c1,0,2,0.2,2.9,0.5
			c0.6,0.2,1.2,0.5,1.7,0.9c0.1,0.1,0.2,0.2,0.3,0.2l0,0c0.5,0.4,0.9,0.8,1.3,1.2C817.1,510.4,817.9,512.3,817.9,514.4z"/>
		<path class="st8" d="M800.4,517.2c-5.1-1.2-9-6-9-11.7c0-1,0.1-2,0.4-3l5.1,4.8c-0.3,0.8-0.4,1.7-0.4,2.7c0,2,0.7,3.9,1.9,5.3l0,0
			l1.6,1.5L800.4,517.2z"/>
		<path class="st8" d="M814.3,505.5c0,0.6,0,1.2-0.1,1.8l-2.9-2.7l0,0l-1.6-1.5c-1-0.7-2.1-1.2-3.4-1.4l0,0l-7.8-7.3
			c1.4-0.6,2.8-0.9,4.4-0.9C809.2,493.6,814.3,498.9,814.3,505.5z"/>
		<path class="st9" d="M814.5,507.6c-0.1-0.1-0.2-0.2-0.3-0.2c-0.5-0.4-1.1-0.7-1.7-0.9c-0.9-0.3-1.9-0.5-2.9-0.5
			c-3.7,0-6.8,2.4-7.9,5.7c-0.3,0.8-0.4,1.7-0.4,2.7c0,1.1,0.2,2.1,0.6,3c0.1,0.1,0.1,0.3,0.2,0.4c0.3,0.6,0.6,1.2,1.1,1.7l-2.5-2.4
			l-0.4-0.4l-1.6-1.5l0,0c-1.2-1.4-1.9-3.3-1.9-5.3c0-0.9,0.2-1.8,0.4-2.7c1.1-3.3,4.2-5.7,7.9-5.7c0.5,0,1,0,1.4,0.1l0,0
			c1.2,0.2,2.4,0.7,3.4,1.4l1.6,1.5l0,0l2.9,2.7L814.5,507.6z"/>
	</g>
</g>
</svg>
