<?xml version="1.0" encoding="utf-8"?>
<!-- Generator: Adobe Illustrator 22.0.0, SVG Export Plug-In . SVG Version: 6.00 Build 0)  -->
<svg version="1.1" id="图层_1" xmlns="http://www.w3.org/2000/svg" xmlns:xlink="http://www.w3.org/1999/xlink" x="0px" y="0px"
	 viewBox="0 0 900 637" style="enable-background:new 0 0 900 637;" xml:space="preserve">
<style type="text/css">
	.st0{fill:#CECECE;}
	.st1{fill:#3D3D3D;}
	.st2{fill:#2B2A2A;}
</style>
<g>
	<g>
		<g>
			<path d="M833.2,222.2c-0.8,3-3.7,4.9-7.2,4.9l-94.5-0.2c-2.5,0-4.5-2.1-4.5-4.6l-0.2-79.2c0-2.2,1.7-3.9,3.9-3.9h1.3
				c-2,0.1-3.6,1.8-3.6,3.8l0.2,77.5c0,2.5,2,4.5,4.4,4.5l93.8,0.2C829.6,225.1,831.9,224,833.2,222.2z"/>
			<path class="st0" d="M826.9,225.1l-93.8-0.2c-2.5,0-4.4-2-4.4-4.5l-0.2-77.5c0-2.1,1.7-3.8,3.8-3.8l91.1,1c2.6,0,4.8,2,5,4.7
				l6,73.3C834.5,222.4,831.1,225.1,826.9,225.1z"/>
		</g>
		<ellipse cx="780.8" cy="182" rx="36.5" ry="38.9"/>
		<path class="st0" d="M810.8,182.5c0,19.5-14.9,35.2-33.4,35.2c-8,0-15.3-3-21-7.9c-7-7-11.4-16.9-11.4-27.8
			c0-7.7,2.1-14.8,5.8-20.8c6.1-8.4,15.7-13.9,26.6-13.9C795.8,147.3,810.8,163.1,810.8,182.5z"/>
		<g>
			<path class="st1" d="M805.4,180.6c0,8.1-5.5,15-13,17.1l-1.7,0.3l-1.2,0.2c-0.2,0-0.5,0.1-0.7,0.1c-0.4,0-0.7,0-1.1,0
				c-0.6,0-1.2,0-1.8-0.1c-8.9-0.9-15.8-8.4-15.8-17.6c0-6.9,3.9-12.8,9.7-15.8c0.1-0.1,0.3-0.1,0.4-0.2c0.6-0.3,1.1-0.5,1.7-0.7
				c0.2-0.1,0.5-0.2,0.7-0.2c0.2-0.1,0.4-0.2,0.7-0.2c0.2-0.1,0.4-0.1,0.6-0.2l1.3-0.2c0.9-0.1,1.8-0.2,2.7-0.2
				C797.5,162.9,805.4,170.9,805.4,180.6z"/>
			<path d="M803.7,180.6c0,7.3-5,13.5-11.7,15.4l-1.5,0.3l-1.1,0.2c-0.5,0.1-1.1,0.1-1.6,0.1c-0.6,0-1.1,0-1.7-0.1
				c-8-0.8-14.3-7.6-14.3-15.9c0-6.2,3.5-11.6,8.7-14.2c0.1-0.1,0.2-0.1,0.4-0.2c1-0.5,2.1-0.9,3.3-1.2l1.2-0.2l0,0
				c0.8-0.1,1.6-0.2,2.4-0.2C796.6,164.7,803.7,171.8,803.7,180.6z"/>
			<path d="M789.5,198.2l-7.1,1.3l-2.6,0.5c-0.1,0-0.3,0-0.5,0.1c-0.5,0-1,0-1.5,0c-0.3,0-0.5,0-0.8,0c-9.4-0.5-16.8-8.2-16.8-17.7
				c0-8.1,5.4-14.9,12.8-17l3.1-0.6l2.2-0.4c0,0,0,0-0.1,0l5.1-0.9c-0.2,0-0.5,0.1-0.7,0.2c-0.2,0.1-0.5,0.1-0.7,0.2
				c-0.6,0.2-1.1,0.4-1.7,0.7c-0.1,0.1-0.3,0.1-0.4,0.2c-5.8,3-9.7,8.9-9.7,15.8c0,9.2,6.9,16.7,15.8,17.6c0.6,0.1,1.2,0.1,1.8,0.1
				c0.4,0,0.7,0,1.1,0C789,198.3,789.3,198.2,789.5,198.2z"/>
			<path class="st2" d="M790.7,198c-3.5,3.9-8.5,6.3-14.1,6.3c-10.7,0-19.3-8.9-19.3-20c0-11.1,8.6-20,19.3-20c0.6,0,1.1,0,1.6,0.1
				c0,0,0,0,0.1,0l-2.2,0.4l-3.1,0.6c-7.4,2.1-12.8,8.9-12.8,17c0,9.5,7.4,17.2,16.8,17.7c0.3,0,0.5,0,0.8,0c0.5,0,1,0,1.5,0
				c0.2,0,0.3,0,0.5-0.1l2.6-0.5l7.1-1.3L790.7,198z"/>
		</g>
	</g>
	<g>
		<g>
			<path d="M730.6,238.3v74.3c0,3.1,3.2,8,6.3,8l91.9-2.6c3.2,0,5.8-2.6,5.8-5.8v1.4c0,3.3-2.7,6.1-6,6.1l-94.3,2.7
				c-3.2,0-6.5-5.1-6.5-8.3v-77.2c0-2.3,3.2-3.8,5.5-3.8l94.6-0.2c4.6,0.1,7.1,2.6,7.1,7.3v1.2c0-4.4-2.5-6.8-6.9-6.9l-92.1,0.2
				C733.8,234.6,730.6,236.1,730.6,238.3z"/>
			<path class="st0" d="M828.8,318l-91.9,2.6c-3.1,0-6.3-4.9-6.3-8v-74.3c0-2.2,3.1-3.6,5.3-3.6l92.1-0.2c4.5,0.1,6.9,2.5,6.9,7
				l-0.3,70.7C834.7,315.4,832.1,318,828.8,318z"/>
		</g>
		<ellipse cx="783.1" cy="276.7" rx="36.5" ry="39.9"/>
		<path class="st0" d="M812.3,279.3c0,18.2-12.6,33.3-29.2,36.6l0,0c-19.8,0-35.8-17.5-35.8-39.2c0-13,5.8-24.5,14.7-31.7
			c4.4-1.9,9.3-3,14.3-3C796.2,242,812.3,258.7,812.3,279.3z"/>
		<g>
			<path class="st1" d="M804.8,276.3c0,6.5-3.3,12.2-8.2,15.4c-0.1,0-0.1,0.1-0.2,0.1c-0.5,0.3-1,0.6-1.5,0.8
				c-0.5,0.3-1,0.5-1.6,0.7c-1.1,0.5-2.3,0.8-3.6,1l-3.2,0.3h-0.1c-0.3,0-0.6,0-0.9,0c-0.3,0-0.6,0-0.9-0.1c-0.1,0-0.2,0-0.3,0
				c-0.6-0.1-1.2-0.2-1.8-0.3c-7.8-1.9-13.6-8.8-13.9-17.2c0-0.3,0-0.5,0-0.8c0-0.2,0-0.4,0-0.6c0.3-7.4,4.8-13.7,11.2-16.3
				c1-0.4,2-0.7,3.1-1h0.1l4.4-0.3C797.1,258.3,804.8,266.4,804.8,276.3z"/>
			<path d="M803,276.3c0,5.8-3,11-7.4,14c-1.8,1.2-3.9,2.1-6.1,2.4l-2.9,0.2c-1.2,0-2.4-0.2-3.6-0.4c-7.2-1.7-12.6-8.3-12.6-16.2
				c0-7,4.2-12.9,10.1-15.4c0.9-0.4,1.8-0.7,2.8-0.9h0.1l4-0.3C796.1,260.1,803,267.4,803,276.3z"/>
			<path d="M786.5,294.7l-7.8,0.6l-3.2,0.2c-9.6-0.1-17.4-7.8-17.9-17.5c0-0.3,0-0.6,0-0.8c0-0.6,0-1.1,0.1-1.7
				c0-0.3,0.1-0.5,0.1-0.8c0.1-1.2,0.4-2.4,0.8-3.5c0.1-0.2,0.1-0.3,0.2-0.5c1-2.7,2.5-5,4.5-7s4.4-3.4,7.1-4.3
				c0.7-0.2,1.4-0.4,2.1-0.5l3.9-0.3l6.6-0.4h0.1c-0.9,0.3-1.9,0.5-3,1c-6.5,2.8-11,9.1-11.2,16.3c0,0.2,0,0.4,0,0.6
				c0,0.3,0,0.5,0,0.8c0.4,8.3,6.1,15.3,13.9,17.1c0.6,0.2,1.2,0.3,1.8,0.4c0.1,0,0.2,0,0.3,0c0.3,0,0.6,0.1,0.9,0.1
				C785.9,294.6,786.2,294.7,786.5,294.7z"/>
			<path class="st2" d="M796.4,291.8c-4,5.1-10.4,8.5-17.5,8.5c-12.1,0-21.9-9.5-21.9-21.2c0-2.8,0.5-5.5,1.5-7.9
				c-0.4,1.1-0.6,2.3-0.8,3.5c0,0.3-0.1,0.5-0.1,0.8c0,0.5-0.1,1.1-0.1,1.7c0,0.3,0,0.6,0,0.8c0.5,9.7,8.3,17.4,17.9,17.5l3.2-0.2
				l7.8-0.6h0.1l3.2-0.3c1.3-0.2,2.5-0.6,3.6-1c0.5-0.2,1-0.5,1.6-0.7C795.5,292.4,795.9,292.1,796.4,291.8z"/>
		</g>
	</g>
</g>
</svg>
