<?xml version="1.0" encoding="utf-8"?>
<!-- Generator: Adobe Illustrator 22.0.0, SVG Export Plug-In . SVG Version: 6.00 Build 0)  -->
<svg version="1.1" id="图层_1" xmlns="http://www.w3.org/2000/svg" xmlns:xlink="http://www.w3.org/1999/xlink" x="0px" y="0px"
	 viewBox="0 0 900 637" style="enable-background:new 0 0 900 637;" xml:space="preserve">
<style type="text/css">
	.st0{fill:#CECECE;}
	.st1{fill:#2B2A2A;}
	.st2{fill:#3D3D3D;}
</style>
<g>
	<g>
		<path d="M833.2,222.2c-0.8,3-3.7,4.9-7.2,4.9l-94.5-0.2c-2.5,0-4.5-2.1-4.5-4.6l-0.2-79.2c0-2.2,1.7-3.9,3.9-3.9h1.3
			c-2,0.1-3.6,1.8-3.6,3.8l0.2,77.5c0,2.5,2,4.5,4.4,4.5l93.8,0.2C829.6,225.1,831.9,224,833.2,222.2z"/>
		<path class="st0" d="M826.9,225.1l-93.8-0.2c-2.5,0-4.4-2-4.4-4.5l-0.2-77.5c0-2.1,1.7-3.8,3.8-3.8l91.1,1c2.6,0,4.8,2,5,4.7
			l6,73.3C834.5,222.4,831.1,225.1,826.9,225.1z"/>
		<path d="M817.3,182c0,21.5-16.3,38.9-36.5,38.9c-13.6,0-25.5-7.9-31.7-19.7c5.9,9.9,16.4,16.5,28.3,16.5
			c18.5,0,33.4-15.7,33.4-35.2c0-19.4-15-35.2-33.4-35.2c-14.3,0-26.5,9.5-31.3,22.8c4.7-15.7,18.5-27,34.8-27
			C800.9,143.1,817.3,160.5,817.3,182z"/>
		<path d="M780.8,143.1c-20.2,0-36.5,17.4-36.5,38.9s16.3,38.9,36.5,38.9s36.5-17.4,36.5-38.9S800.9,143.1,780.8,143.1z
			 M780.8,220.1C761,220.1,745,203,745,182s16-38.1,35.8-38.1s35.8,17.1,35.8,38.1S800.6,220.1,780.8,220.1z"/>
		<path class="st1" d="M790.7,198c-3.5,3.9-8.5,6.3-14.1,6.3c-10.7,0-19.3-8.9-19.3-20s8.6-20,19.3-20c0.6,0,1.1,0,1.7,0.1l-2.2,0.4
			l-3.1,0.6c-7.4,2.1-12.8,8.9-12.8,17c0,9.8,7.9,17.7,17.7,17.7c0.7,0,1.3,0,2-0.1l2.6-0.5l7.1-1.3L790.7,198z"/>
		<path class="st2" d="M805.4,180.6c0,8.1-5.5,15-13,17.1l-1.7,0.3l-1.2,0.2c-0.6,0.1-1.2,0.1-1.8,0.1s-1.2,0-1.8-0.1
			c-8.9-0.9-15.8-8.4-15.8-17.6c0-6.9,3.9-12.8,9.7-15.8c0.1-0.1,0.3-0.1,0.4-0.2c1.2-0.6,2.4-1,3.7-1.3l1.3-0.2l0,0
			c0.9-0.1,1.8-0.2,2.7-0.2C797.5,162.9,805.4,170.9,805.4,180.6z"/>
		<path d="M803.7,180.6c0,7.3-5,13.5-11.7,15.4l-1.5,0.3l-1.1,0.2c-0.5,0.1-1.1,0.1-1.6,0.1c-0.6,0-1.1,0-1.7-0.1
			c-8-0.8-14.3-7.6-14.3-15.9c0-6.2,3.5-11.6,8.7-14.2c0.1-0.1,0.2-0.1,0.4-0.2c1-0.5,2.1-0.9,3.3-1.2l1.2-0.2l0,0
			c0.8-0.1,1.6-0.2,2.4-0.2C796.6,164.7,803.7,171.8,803.7,180.6z"/>
		<path d="M789.5,198.2l-7.1,1.3l-2.6,0.5c-0.6,0.1-1.3,0.1-2,0.1c-9.8,0-17.7-7.9-17.7-17.7c0-8.1,5.4-14.9,12.8-17l3.1-0.6
			l2.2-0.4l5.4-1c-1.3,0.3-2.5,0.7-3.7,1.3c-0.1,0.1-0.3,0.1-0.4,0.2c-5.7,2.9-9.7,8.9-9.7,15.8c0,9.1,6.9,16.7,15.8,17.6
			c0.6,0.1,1.2,0.1,1.8,0.1C788.3,198.3,788.9,198.3,789.5,198.2z"/>
	</g>
	<g>
		<path d="M730.5,236v74.3c0,3.1,3.2,8,6.3,8l91.9-2.6c3.2,0,5.8-2.6,5.8-5.8v1.4c0,3.3-2.7,6.1-6,6.1l-94.3,2.7
			c-3.2,0-6.5-5.1-6.5-8.3v-77.2c0-2.3,3.2-3.8,5.5-3.8l94.6-0.2c4.6,0.1,7.1,2.6,7.1,7.3v1.2c0-4.4-2.5-6.8-6.9-6.9l-92.1,0.2
			C733.7,232.3,730.5,233.8,730.5,236z"/>
		<path class="st0" d="M828.7,315.7l-91.9,2.6c-3.1,0-6.3-4.9-6.3-8V236c0-2.2,3.1-3.6,5.3-3.6l92.1-0.2c4.5,0.1,6.9,2.5,6.9,7
			l-0.3,70.7C834.6,313.1,832,315.7,828.7,315.7z"/>
		<path d="M819.6,274.2c0,22-16.3,39.9-36.5,39.9c-1.2,0-2.3-0.1-3.4-0.2c18.3-1.8,32.6-17.7,32.6-37.1c0-20.6-16.1-37.3-36-37.3
			c-5.9,0-11.6,1.5-16.5,4.1c6.3-5.8,14.5-9.3,23.4-9.3C803.3,234.3,819.6,252.2,819.6,274.2z"/>
		<path d="M783.1,234.3c-20.2,0-36.5,17.9-36.5,39.9s16.3,39.9,36.5,39.9s36.5-17.9,36.5-39.9S803.3,234.3,783.1,234.3z
			 M783.1,313.4c-19.8,0-35.8-17.5-35.8-39.2c0-21.6,16-39.2,35.8-39.2s35.8,17.5,35.8,39.2C819,295.9,802.9,313.4,783.1,313.4z"/>
		<path class="st2" d="M804.8,272.8c0,6.5-3.3,12.2-8.2,15.4c-2,1.3-4.3,2.3-6.8,2.7l-3.2,0.3c-1.4,0-2.7-0.2-4-0.5
			c-8-1.9-13.9-9.2-13.9-17.9c0-7.7,4.6-14.3,11.2-17c1-0.4,2-0.7,3.1-1h0.1l4.4-0.3C797.1,254.8,804.8,262.9,804.8,272.8z"/>
		<path d="M803,272.8c0,5.8-3,11-7.4,14c-1.8,1.2-3.9,2.1-6.1,2.4l-2.9,0.2c-1.2,0-2.4-0.2-3.6-0.4c-7.2-1.7-12.6-8.3-12.6-16.2
			c0-7,4.2-12.9,10.1-15.4c0.9-0.4,1.8-0.7,2.8-0.9h0.1l4-0.3C796.1,256.6,803,263.9,803,272.8z"/>
		<path d="M786.5,291.2l-7.8,0.6l-3.2,0.2c-9.9-0.1-17.9-8.3-17.9-18.4c0-2.2,0.4-4.4,1.1-6.4l0,0c1.9-5.3,6.2-9.5,11.6-11.2
			c0.7-0.2,1.4-0.4,2.1-0.5l3.9-0.3l6.6-0.5h0.2H783c-1.1,0.2-2.1,0.6-3.1,1c-6.6,2.8-11.2,9.3-11.2,17c0,8.7,5.9,16,13.9,17.9
			C783.8,291,785.1,291.2,786.5,291.2z"/>
		<path class="st1" d="M796.5,288.2c-4,5.2-10.4,8.6-17.6,8.6c-12.1,0-21.9-9.5-21.9-21.2c0-3,0.6-5.8,1.7-8.3
			c-0.7,2-1.1,4.1-1.1,6.4c0,10.1,8,18.3,17.9,18.4l3.2-0.2l7.8-0.6l3.2-0.3C792.2,290.5,794.5,289.6,796.5,288.2z"/>
	</g>
</g>
</svg>
